<svg width="25" height="24" viewBox="0 0 25 24" fill="none" xmlns="http://www.w3.org/2000/svg">
<path fill-rule="evenodd" clip-rule="evenodd" d="M20.3157 8.38029L15.3157 4.00029C13.9 2.76683 11.7914 2.76683 10.3757 4.00029L5.3757 8.38029C4.56269 9.09198 4.09617 10.1198 4.0957 11.2003V19.5003C4.0957 20.4668 4.8792 21.2503 5.8457 21.2503H9.8457C10.8122 21.2503 11.5957 20.4668 11.5957 19.5003V16.5003C11.5957 15.8099 12.1553 15.2503 12.8457 15.2503C13.5361 15.2503 14.0957 15.8099 14.0957 16.5003V19.5003C14.0957 20.4668 14.8792 21.2503 15.8457 21.2503H19.8457C20.8122 21.2503 21.5957 20.4668 21.5957 19.5003V11.2003C21.5952 10.1198 21.1287 9.09198 20.3157 8.38029ZM14.7957 14.5503C14.0103 13.7605 12.8261 13.5224 11.7965 13.9474C10.7669 14.3724 10.0953 15.3764 10.0957 16.4903V19.4903C10.0957 19.6284 9.98377 19.7403 9.8457 19.7403H5.8457C5.70763 19.7403 5.5957 19.6284 5.5957 19.4903V11.2003C5.59707 10.5524 5.87768 9.93648 6.3657 9.51029L11.3657 5.13029C12.2215 4.37088 13.5099 4.37088 14.3657 5.13029L19.3657 9.51029C19.8537 9.93648 20.1343 10.5524 20.1357 11.2003V19.5003C20.1357 19.6384 20.0238 19.7503 19.8857 19.7503H15.8457C15.7076 19.7503 15.5957 19.6384 15.5957 19.5003V16.5003C15.602 15.7692 15.3136 15.0664 14.7957 14.5503Z" fill="#B8B8B8"/>
</svg>
