<svg width="25" height="24" viewBox="0 0 25 24" fill="none" xmlns="http://www.w3.org/2000/svg">
<path fill-rule="evenodd" clip-rule="evenodd" d="M17.3057 22.25H8.30566C6.2346 22.25 4.55566 20.5711 4.55566 18.5V5.5C4.55566 3.42893 6.2346 1.75 8.30566 1.75H17.3057C19.3767 1.75 21.0557 3.42893 21.0557 5.5V18.5C21.0557 20.5711 19.3767 22.25 17.3057 22.25ZM19.5557 18.5V5.5C19.5557 4.25736 18.5483 3.25 17.3057 3.25H8.30566C7.06302 3.25 6.05566 4.25736 6.05566 5.5V18.5C6.05566 19.7426 7.06302 20.75 8.30566 20.75H17.3057C18.5483 20.75 19.5557 19.7426 19.5557 18.5ZM16.3457 12.75H9.34566C8.93145 12.75 8.59566 12.4142 8.59566 12C8.59566 11.5858 8.93145 11.25 9.34566 11.25H16.3457C16.7599 11.25 17.0957 11.5858 17.0957 12C17.0957 12.4142 16.7599 12.75 16.3457 12.75ZM9.34566 15.75H12.3457C12.7599 15.75 13.0957 16.0858 13.0957 16.5C13.0957 16.9142 12.7599 17.25 12.3457 17.25H9.34566C8.93145 17.25 8.59566 16.9142 8.59566 16.5C8.59566 16.0858 8.93145 15.75 9.34566 15.75ZM16.3457 8.75H9.34566C8.93145 8.75 8.59566 8.41421 8.59566 8C8.59566 7.58579 8.93145 7.25 9.34566 7.25H16.3457C16.7599 7.25 17.0957 7.58579 17.0957 8C17.0957 8.41421 16.7599 8.75 16.3457 8.75Z" fill="#999999"/>
</svg>
