<svg width="25" height="24" viewBox="0 0 25 24" fill="none" xmlns="http://www.w3.org/2000/svg">
<path fill-rule="evenodd" clip-rule="evenodd" d="M10.6469 14.361L8.5879 12.469C8.2829 12.189 8.2639 11.715 8.5439 11.409C8.8239 11.106 9.2989 11.085 9.6039 11.365L11.6849 13.279C11.7138 13.3073 11.7471 13.3266 11.7806 13.3459C11.8027 13.3587 11.8249 13.3715 11.8459 13.387V3.75C11.8459 3.336 12.1819 3 12.5959 3C13.0099 3 13.3459 3.336 13.3459 3.75V13.387C13.3634 13.3737 13.3823 13.3631 13.4011 13.3526C13.4275 13.3379 13.4537 13.3232 13.4759 13.301L15.5889 11.365C15.8969 11.085 16.3709 11.107 16.6489 11.41C16.9289 11.716 16.9079 12.191 16.6029 12.47L14.5129 14.384C13.9909 14.907 13.2979 15.168 12.6009 15.168C11.8959 15.168 11.1859 14.9 10.6469 14.361ZM16.3457 3.75488C16.3457 3.34088 16.6817 3.00488 17.0957 3.00488C19.5977 3.00488 21.3457 4.95788 21.3457 7.75488V15.7499C21.3457 18.3689 19.2147 20.4999 16.5957 20.4999H8.5957C5.9767 20.4999 3.8457 18.3689 3.8457 15.7499V7.75488C3.8457 4.95788 5.5937 3.00488 8.0957 3.00488C8.5097 3.00488 8.8457 3.34088 8.8457 3.75488C8.8457 4.16888 8.5097 4.50488 8.0957 4.50488C6.1967 4.50488 5.3457 6.13688 5.3457 7.75488V15.7499C5.3457 17.5419 6.8037 18.9999 8.5957 18.9999H16.5957C18.3877 18.9999 19.8457 17.5419 19.8457 15.7499V7.75488C19.8457 6.13688 18.9947 4.50488 17.0957 4.50488C16.6817 4.50488 16.3457 4.16888 16.3457 3.75488Z" fill="#999999"/>
</svg>
