<svg width="240" height="240" viewBox="0 0 240 240" fill="none" xmlns="http://www.w3.org/2000/svg">
<path fill-rule="evenodd" clip-rule="evenodd" d="M70.9541 66.0704C49.3748 83.3891 39.3053 157.102 56.6663 186.043C86.1438 235.182 203.402 215.488 215.841 152.885C244.553 8.38491 108.489 35.9471 70.9541 66.0704Z" fill="#FAF0C1"/>
<path fill-rule="evenodd" clip-rule="evenodd" d="M125.682 43.9711C103.236 47.8395 82.4628 56.8337 70.9538 66.0701C49.3745 83.3888 39.3057 157.102 56.666 186.042C86.1435 235.182 203.401 215.488 215.841 152.885C217.576 144.152 218.704 136.052 219.294 128.537C225.468 49.8516 172.014 35.9863 125.682 43.9711Z" fill="#FAF0C1"/>
<path fill-rule="evenodd" clip-rule="evenodd" d="M131.02 61.7774C130.963 75.9585 130.442 91.6325 131.463 114.177C132.495 136.971 147.139 131.911 160.107 131.614C176.673 131.233 184.933 134.149 203.357 133.029C211.919 132.508 216.649 131.172 219.294 128.538C225.157 53.8104 177.241 37.545 132.72 42.9375C130.361 43.2228 131.039 57.0315 131.02 61.7774Z" fill="#FBF7E5"/>
<path fill-rule="evenodd" clip-rule="evenodd" d="M148.851 50.4927C142.568 50.6037 138.92 53.4456 142.938 54.7455C146.955 56.0461 166.217 54.4229 172.131 54.2926C178.045 54.1615 181.297 53.8665 181.251 51.2801C181.2 48.4978 170.611 50.01 162.489 50.0808C155.184 50.1441 148.851 50.4927 148.851 50.4927Z" fill="#C4DDEB"/>
<path fill-rule="evenodd" clip-rule="evenodd" d="M145.91 77.9994C141.791 78.6899 139.827 81.8812 145.723 82.6C151.618 83.3189 165.378 82.7364 174.24 82.3944C183.103 82.0525 198.898 80.5493 200.748 80.4874C202.6 80.4256 206.118 76.7874 198.358 76.3479C190.599 75.9084 163.845 78.2087 157.385 78.0977C150.925 77.9875 147.643 77.7089 145.91 77.9994Z" fill="#C4DDEB"/>
<path fill-rule="evenodd" clip-rule="evenodd" d="M145.91 92.2611C141.791 92.9516 139.827 96.1429 145.723 96.8618C151.618 97.5806 165.378 96.9981 174.24 96.6562C183.103 96.3142 198.898 94.811 200.748 94.7491C202.6 94.6873 206.118 91.0491 198.358 90.6096C190.599 90.1701 163.845 92.4704 157.385 92.3594C150.925 92.2492 147.643 91.9706 145.91 92.2611Z" fill="#C4DDEB"/>
<path fill-rule="evenodd" clip-rule="evenodd" d="M145.91 106.524C141.791 107.214 139.827 110.406 145.723 111.124C151.618 111.843 165.378 111.261 174.24 110.919C183.103 110.577 198.898 109.074 200.748 109.012C202.6 108.95 206.118 105.312 198.358 104.872C190.599 104.433 163.845 106.733 157.385 106.622C150.925 106.512 147.643 106.233 145.91 106.524Z" fill="#C4DDEB"/>
<path fill-rule="evenodd" clip-rule="evenodd" d="M164.414 180.108C168.143 171.975 170.465 162.968 171.225 153.788C172.014 144.266 171.037 137.455 169.485 128.826C168.45 123.069 162.754 109.334 157.944 111.895C153.396 114.317 154.827 114.416 155.919 124.862C156.998 135.198 157.728 141.555 156.765 148.137C155.78 154.872 152.258 165.147 150.397 165.605C148.311 166.117 132.947 145.342 125.988 138.376C111.544 123.914 100.584 142.065 112.097 156.256C124.387 171.405 138.099 184.008 147.84 188.499C154.213 191.437 160.988 187.582 164.414 180.108Z" fill="#88BCDA"/>
<path fill-rule="evenodd" clip-rule="evenodd" d="M102.722 118.273C104.651 113.257 123.227 131.552 136.114 144.462C139.476 147.831 128.456 162.883 122.307 168.253C116.863 173.008 116.931 158.94 100.907 153.547C94.0441 151.237 99.2446 127.31 102.722 118.273Z" fill="white"/>
<path fill-rule="evenodd" clip-rule="evenodd" d="M89.8148 71.8138C87.9172 70.5244 87.0978 64.7445 88.6668 62.3995C91.3317 58.4171 101.715 59.5516 102.757 64.4465C105.159 75.7441 93.1148 74.0561 89.8148 71.8138ZM104.431 63.9303C103.149 57.9061 90.3695 56.5101 87.0904 61.411C85.1593 64.2975 86.1676 71.4108 88.5032 72.9975C92.5646 75.7575 107.388 77.8351 104.431 63.9303Z" fill="#0B5077"/>
<path fill-rule="evenodd" clip-rule="evenodd" d="M89.8151 71.814C87.9175 70.5246 87.098 64.7447 88.667 62.3997C91.3319 58.4173 101.715 59.5518 102.757 64.4467C105.159 75.7443 93.115 74.0563 89.8151 71.814Z" fill="white"/>
<path fill-rule="evenodd" clip-rule="evenodd" d="M97.1117 89.7554C100.4 85.0765 100.447 79.7041 99.8555 73.1562C97.1533 43.2766 89.1235 41.3114 76.3608 38.185C57.216 33.4942 68.8655 48.7555 65.6139 62.0762C62.3615 75.3962 66.3448 83.025 66.5642 90.0675C66.9144 101.303 58.6518 112.604 50.4175 120.68C39.9405 130.955 71.7231 135.328 83.2492 131.172C94.7746 127.015 98.0717 126.958 95.8878 118.507C92.7298 106.285 90.4567 99.2249 97.1117 89.7554Z" fill="#88BCDA"/>
<path fill-rule="evenodd" clip-rule="evenodd" d="M97.4284 115.594C122.368 117.607 121.018 152.024 132.248 189.462C142.148 222.467 142.477 218.804 110.648 219.401C78.5691 220.002 59.1016 210.549 52.7195 202.679C46.611 195.147 43.3921 183.499 45.0837 166.909C48.4908 133.5 57.4903 109.436 59.3076 109.935C61.1256 110.435 60.3463 128.301 77.311 126.619C92.4278 125.12 92.755 115.217 97.4284 115.594Z" fill="white"/>
<path fill-rule="evenodd" clip-rule="evenodd" d="M60.0834 170.22C77.2101 170.431 90.0003 155.872 86.1018 133.827C83.2278 117.575 75.4359 88.9532 91.1744 70.8448C103.916 56.1847 93.4929 21.7103 59.3717 26.8883C34.3706 30.6822 26.7132 61.829 29.1559 75.7934C31.9034 91.5008 20.0776 112.015 19.0514 130.74C18.264 145.118 34.1393 169.9 60.0834 170.22Z" fill="#0B5077"/>
<path fill-rule="evenodd" clip-rule="evenodd" d="M159.024 123.099C160.165 118.557 162.209 108.28 162.655 106.507C163.101 104.732 164.862 102.536 160.617 101.239C156.372 99.9418 155.166 100.996 154.325 103.274C153.484 105.552 151.08 116.19 150.295 119.313C149.511 122.435 146.598 131.783 148.406 132.616C150.213 133.449 155.813 135.239 157.011 131.541C158.209 127.844 159.024 123.099 159.024 123.099Z" fill="#FE6340"/>
<path fill-rule="evenodd" clip-rule="evenodd" d="M198.864 54.4806C200.5 62.0848 197.047 70.1121 193.075 77.9882C189.115 85.8397 183.4 91.604 176.307 94.8243C167.675 98.7433 159.852 99.0875 150.287 94.2455C140.681 89.3833 136.426 81.4581 134.439 72.1659C132.807 64.5349 134.288 57.6548 138.251 49.7973C145.933 34.5666 160.762 22.6209 181.195 32.9642C190.767 37.8092 196.877 45.2495 198.864 54.4806ZM185.191 25.2863C158.987 12.0222 140.25 26.7873 130.673 45.7754C125.733 55.5712 123.942 64.1773 126.133 73.7697C128.8 85.4494 134.339 95.4493 146.659 101.684C158.924 107.893 168.895 107.574 179.845 102.785C188.843 98.8491 196.048 91.703 200.984 81.9147C205.936 72.0959 210.225 62.0796 208.029 52.5207C205.362 40.917 197.465 31.499 185.191 25.2863Z" fill="#FE6340"/>
<path fill-rule="evenodd" clip-rule="evenodd" d="M198.863 54.4811C196.876 45.25 190.766 37.8096 181.195 32.9647C160.762 22.6214 145.932 34.567 138.251 49.7977C134.288 57.6552 132.807 64.5353 134.438 72.1663C136.425 81.4578 140.681 89.3838 150.287 94.2459C159.851 99.0879 167.675 98.7437 176.307 94.8247C183.4 91.6044 189.114 85.8401 193.074 77.9886C197.047 70.1126 200.5 62.0852 198.863 54.4811Z" fill="white" fill-opacity="0.5"/>
<path fill-rule="evenodd" clip-rule="evenodd" d="M153.148 121.256C153.148 121.256 154.425 117.899 157.495 124.277C162.139 133.924 157.305 145.149 157.378 140.602C157.501 132.892 152.504 124.247 153.148 121.256Z" fill="#88BCDA"/>
<path fill-rule="evenodd" clip-rule="evenodd" d="M89.0544 69.2379C91.6294 67.3496 95.9756 66.0392 98.9105 65.5498C101.669 65.0902 104.138 64.5635 104.062 65.7778C104.015 66.5316 104.899 67.0166 100.577 67.5991C96.6374 68.1302 92.3611 69.1165 89.1452 71.4057C88.5347 71.84 87.6186 72.2392 87.3925 71.7513C87.1918 71.3207 87.7911 70.1646 89.0544 69.2379Z" fill="#0B5077"/>
</svg>
