<svg width="25" height="24" viewBox="0 0 25 24" fill="none" xmlns="http://www.w3.org/2000/svg">
<path fill-rule="evenodd" clip-rule="evenodd" d="M20.1934 8.1439C20.1934 6.40905 18.7969 5 17.0621 5C15.3251 5 13.9182 6.40905 13.9182 8.1439C13.9182 9.87876 15.3251 11.2868 17.0621 11.2868C18.7969 11.2868 20.1934 9.87876 20.1934 8.1439ZM5.48926 9.19152C5.48926 7.45667 6.89726 6.04762 8.63211 6.04762C10.368 6.04762 11.7655 7.45667 11.7655 9.19152V11.337C11.7655 11.885 11.3141 12.3333 10.7571 12.3333H6.49765C5.94063 12.3333 5.48926 11.8849 5.48926 11.3316V9.19152ZM17.5127 18.1663V17.0483C17.5127 16.2362 17.2648 15.5166 16.8194 14.8879C16.9026 14.8837 16.9833 14.8816 17.0608 14.8816C19.2122 14.8816 21.846 16.111 21.846 17.0483V18.1663H17.5127ZM23.3457 17.0483C23.3457 14.6042 19.1561 13.3816 17.0604 13.3816C16.0816 13.3816 14.6459 13.6483 13.3936 14.1816C14.8224 14.7901 16.0124 15.7457 16.0124 17.0483V18.6663C16.0124 19.2186 16.4601 19.6663 17.0124 19.6663H22.3457C22.898 19.6663 23.3457 19.2186 23.3457 18.6663V17.0483ZM8.63187 14.4292C6.53618 14.4292 2.3457 15.6518 2.3457 18.0959V18.6628C2.3457 19.217 2.79313 19.6663 3.35323 19.6663H13.9096C14.466 19.6663 14.9171 19.2205 14.9171 18.6628V18.0959C14.9171 15.6518 10.7276 14.4292 8.63187 14.4292ZM13.4171 18.1663V18.0959C13.4171 17.1586 10.7833 15.9292 8.63187 15.9292C6.48021 15.9292 3.8457 17.1587 3.8457 18.0959V18.1663H13.4171ZM10.2655 9.19152V10.8333H6.98926V9.19152C6.98926 8.28474 7.72604 7.54762 8.63211 7.54762C9.5356 7.54762 10.2655 8.2811 10.2655 9.19152ZM17.0621 6.5C16.1544 6.5 15.4182 7.2366 15.4182 8.1439C15.4182 9.05086 16.1541 9.78676 17.0621 9.78676C17.9646 9.78676 18.6934 9.05424 18.6934 8.1439C18.6934 7.23321 17.9643 6.5 17.0621 6.5Z" fill="#999999"/>
</svg>
